<?xml version="1.0" encoding="iso-8859-1"?>
<!-- Generator: Adobe Illustrator 19.0.0, SVG Export Plug-In . SVG Version: 6.00 Build 0)  -->
<svg version="1.1" id="Layer_1" xmlns="http://www.w3.org/2000/svg" xmlns:xlink="http://www.w3.org/1999/xlink" x="0px" y="0px"
	 viewBox="0 0 512.001 512.001" style="enable-background:new 0 0 512.001 512.001;" xml:space="preserve">
<g>
	<g>
		<path d="M496.201,419.912L371.547,295.258c-9.096,15.509-20.224,29.966-33.274,43.015c-13.176,13.176-27.672,24.248-43.059,33.23
			l124.697,124.697c10.189,10.189,23.736,15.8,38.145,15.8c14.409,0,27.956-5.612,38.145-15.8
			c10.188-10.189,15.8-23.735,15.8-38.145C512.001,443.647,506.39,430.1,496.201,419.912z"/>
	</g>
</g>
<g>
	<g>
		<path d="M321.143,55.025C284.459,18.343,236.272,0,188.085,0C139.898,0,91.711,18.343,55.027,55.026
			c-73.369,73.369-73.369,192.747,0,266.116c73.368,73.368,192.747,73.368,266.116,0c35.542-35.542,55.115-82.796,55.115-133.059
			S356.685,90.567,321.143,55.025z M294.439,294.436c-29.322,29.323-67.838,43.983-106.353,43.983
			c-38.516,0-77.032-14.661-106.353-43.982c-58.643-58.644-58.643-154.064,0-212.707c58.643-58.643,154.062-58.642,212.707,0
			C353.081,140.374,353.081,235.793,294.439,294.436z"/>
	</g>
</g>
<g>
	<g>
		<path d="M98.861,98.862c-3.881,3.881-7.454,7.956-10.724,12.19h20.979V89.669C105.574,92.516,102.147,95.575,98.861,98.862z"/>
	</g>
</g>
<g>
	<g>
		<path d="M302.431,134.723c-1.146,0.36-2.366,0.555-3.63,0.555h-14.615c0.276,1.016,0.437,2.08,0.437,3.183v22.845
			c0,6.69-5.424,12.113-12.113,12.113s-12.113-5.423-12.113-12.113v-22.845c0-1.104,0.16-2.167,0.437-3.183h-4.765
			c-6.689,0-12.113-5.423-12.113-12.113V74.937c-8.22-4.051-16.791-7.15-25.551-9.304v51.024c0,6.69-5.423,12.113-12.113,12.113
			h-18.209c-6.69,0-12.113-5.423-12.113-12.113s5.423-12.113,12.113-12.113h6.096V62.11c-2.031-0.097-4.064-0.147-6.096-0.147
			c-20.405,0-40.809,4.911-59.272,14.721c2.762,2.22,4.531,5.62,4.531,9.438v37.042c0,6.69-5.423,12.113-12.113,12.113H77.293
			c-1.24,0-2.437-0.188-3.564-0.534c-4.741,10.191-8.047,20.889-9.92,31.787c1.441-0.604,3.022-0.94,4.683-0.94h53.93
			c6.69,0,12.113,5.423,12.113,12.113v19.771h53.551c6.69,0,12.113,5.423,12.113,12.113v27.393c0,6.69-5.423,12.113-12.113,12.113
			c-6.69,0-12.113-5.423-12.113-12.113v-15.28h-53.551c-6.69,0-12.113-5.423-12.113-12.113v-19.771H68.491
			c-2.404,0-4.64-0.71-6.524-1.917c-0.033,21.998,5.641,44,17.01,63.577c0.986-0.259,2.014-0.411,3.082-0.411h40.362
			c6.69,0,12.113,5.423,12.113,12.113v39.163c13.181,6.162,27.215,9.928,41.438,11.287v-19.314c0-6.69,5.423-12.113,12.113-12.113
			c6.69,0,12.113,5.423,12.113,12.113v19.314c15.492-1.481,30.758-5.82,44.944-12.998v-37.452c0-6.69,5.424-12.113,12.113-12.113
			h40.175c5.766-10.017,10.045-20.661,12.837-31.611h-50.262c-0.893,5.809-5.914,10.258-11.972,10.258
			c-6.69,0-12.113-5.423-12.113-12.113v-10.258c0-6.69,5.423-12.113,12.113-12.113h63.784c0.741,0,1.464,0.078,2.169,0.205
			C315.18,174.76,311.333,153.848,302.431,134.723z M188.086,173.419h-15.707c-6.69,0-12.113-5.423-12.113-12.113
			s5.423-12.113,12.113-12.113h15.707c6.69,0,12.113,5.423,12.113,12.113S194.776,173.419,188.086,173.419z"/>
	</g>
</g>
<g>
	<g>
		<polygon points="268.183,86.901 268.183,111.052 288.575,111.052 		"/>
	</g>
</g>
<g>
	<g>
		<polygon points="93.683,275.29 110.308,292.614 110.308,275.29 		"/>
	</g>
</g>
<g>
	<g>
		<polygon points="269.368,275.29 269.368,292.614 285.994,275.29 		"/>
	</g>
</g>
<g>
</g>
<g>
</g>
<g>
</g>
<g>
</g>
<g>
</g>
<g>
</g>
<g>
</g>
<g>
</g>
<g>
</g>
<g>
</g>
<g>
</g>
<g>
</g>
<g>
</g>
<g>
</g>
<g>
</g>
</svg>
